<svg width="32" height="32" xmlns="http://www.w3.org/2000/svg">

 <g>
  <title>background</title>
  <rect fill="none" id="canvas_background" height="402" width="582" y="-1" x="-1"/>
 </g>
 <g>
  <title>Layer 1</title>
  <path fill="#f83606" id="svg_1" d="m27,9.3218c0,-2.3867 -1.9346,-4.3218 -4.3213,-4.3218l-13.3574,0c-2.3867,0 -4.3213,1.9351 -4.3213,4.3218l0,13.3564c0,2.3867 1.9346,4.3218 4.3213,4.3218l13.3574,0c2.3867,0 4.3213,-1.9351 4.3213,-4.3218l0,-13.3564zm-2,13.3564c0,1.2822 -1.0391,2.3218 -2.3213,2.3218l-13.3574,0c-1.2822,0 -2.3213,-1.0396 -2.3213,-2.3218l0,-13.3564c0,-1.2822 1.0391,-2.3218 2.3213,-2.3218l13.3574,0c1.2822,0 2.3213,1.0396 2.3213,2.3218l0,13.3564zm-5.9375,-0.6782c0,0.5522 -0.4473,1 -1,1l-4,0c-0.5527,0 -1,-0.4478 -1,-1s0.4473,-1 1,-1l0.9375,0l0,-6l-0.9375,0c-0.5527,0 -1,-0.4478 -1,-1s0.4473,-1 1,-1l2.9375,0l0,8l1.0625,0c0.5527,0 1,0.4478 1,1zm-4.5625,-11.4375c0,-0.8286 0.6719,-1.5 1.5,-1.5s1.5,0.6714 1.5,1.5s-0.6719,1.5 -1.5,1.5s-1.5,-0.6714 -1.5,-1.5z"/>
 </g>
</svg>