<svg width="100" height="100" xmlns="http://www.w3.org/2000/svg" xml:space="preserve" version="1.1" enable-background="new 0 0 256 256">
 <title>Arrow</title>

 <g>
  <title>Layer 1</title>
  <path stroke="#1ff21f" fill="#fe361b" stroke-width="0" id="svg_1" d="m29.11269,50c0,-0.96633 0.79459,-1.64062 1.775,-1.64062l33.84537,0l-13.07426,-12.56609c-0.7039,-0.67348 -0.72026,-1.80906 -0.03827,-2.50168c0.34834,-0.3541 0.81123,-0.54551 1.27412,-0.54551c0.44541,0 0.89194,0.1575 1.23584,0.48727l16.21518,15.51402c0.34502,0.32977 0.53888,0.78066 0.53888,1.25426s-0.19386,0.92559 -0.53888,1.25535l-16.21518,15.51566c-0.70112,0.67238 -1.82603,0.65652 -2.50996,-0.03801c-0.68199,-0.69289 -0.66562,-1.85637 0.03827,-2.52957l13.07426,-12.56445l-33.84537,0c-0.98041,0 -1.775,-0.6743 -1.775,-1.64062zm-14.61269,0c0,19.29867 15.92563,35 35.5,35s35.5,-15.70133 35.5,-35s-15.92563,-35 -35.5,-35s-35.5,15.70133 -35.5,35zm3.55,0c0,-17.36902 14.33285,-31.5 31.95,-31.5s31.95,14.13098 31.95,31.5s-14.33285,31.5 -31.95,31.5s-31.95,-14.13098 -31.95,-31.5z"/>
 </g>
</svg>