<svg width="32" height="32" xmlns="http://www.w3.org/2000/svg">

 <g>
  <title>background</title>
  <rect fill="none" id="canvas_background" height="402" width="582" y="-1" x="-1"/>
 </g>
 <g>
  <title>Layer 1</title>
  <path fill="#f83606" id="svg_1" d="m29,2l-26,0c-0.553,0 -1,0.447 -1,1l0,26c0,0.553 0.447,1 1,1l26,0c0.553,0 1,-0.447 1,-1l0,-26c0,-0.553 -0.447,-1 -1,-1zm-1,26l-24,0l0,-24l24,0l0,24zm-18.363,-7.05l4.949,-4.95l-4.949,-4.949c-0.391,-0.391 -0.391,-1.023 0,-1.414s1.023,-0.391 1.414,0l4.949,4.949l4.95,-4.949c0.391,-0.391 1.023,-0.391 1.414,0s0.391,1.023 0,1.414l-4.95,4.949l4.95,4.95c0.391,0.391 0.391,1.023 0,1.414c-0.195,0.195 -0.451,0.293 -0.707,0.293s-0.512,-0.098 -0.707,-0.293l-4.95,-4.95l-4.949,4.95c-0.195,0.195 -0.451,0.293 -0.707,0.293s-0.512,-0.098 -0.707,-0.293c-0.391,-0.39 -0.391,-1.023 0,-1.414z"/>
 </g>
</svg>