<svg width="400" height="128" xmlns="http://www.w3.org/2000/svg">
 <title/>

 <g>
  <title>background</title>
  <rect x="-1" y="-1" width="402" height="130" id="canvas_background" fill="none"/>
 </g>
 <g>
  <title>Layer 1</title>
  <path class="cls-1" d="m32,56l0,24.14a6,6 0 0 0 2,4.5a45.26,45.26 0 0 0 60,0a6,6 0 0 0 2,-4.5l0,-24.14l-64,0z" id="svg_1" fill="#333333"/>
  <path class="cls-2" d="m34.08,60.76l61.92,0l0,-4.76l-64,0l0,24.14a6,6 0 0 0 2.08,4.55l0,-23.93z" id="svg_2" fill="#4d4d4d"/>
  <path class="cls-3" d="m32,56l0,7.48l35.4,17.69a4.22,4.22 0 0 0 3.77,0l18.33,-9.17a2.57,2.57 0 0 1 3.72,2.3l0,5.83a6,6 0 0 1 -2,4.49a45.08,45.08 0 0 1 -28.61,11.38a45.12,45.12 0 0 0 31.39,-11.39a6,6 0 0 0 2,-4.47l0,-24.14l-64,0z" id="svg_3" fill="#1f1f1f"/>
  <path class="cls-2" d="m62.11,32.45l-44.94,22.49a2.11,2.11 0 0 0 0,3.77l44.94,22.46a4.22,4.22 0 0 0 3.77,0l44.95,-22.47a2.11,2.11 0 0 0 0,-3.77l-44.94,-22.48a4.22,4.22 0 0 0 -3.78,0z" id="svg_4" fill="#4d4d4d"/>
  <path class="cls-4" d="m20.54,58.77a2.18,2.18 0 0 1 0,-3.9s42.67,-23 41.58,-22.42l-44.95,22.49a2.11,2.11 0 0 0 0,3.77l44.94,22.46c1.09,0.55 -41.57,-22.4 -41.57,-22.4z" id="svg_5" fill="#666666"/>
  <path class="cls-1" d="m107.46,58.77a2.18,2.18 0 0 0 0,-3.9s-42.67,-23 -41.58,-22.42l44.95,22.48a2.11,2.11 0 0 1 0,3.77l-44.94,22.47c-1.09,0.55 41.57,-22.4 41.57,-22.4z" id="svg_6" fill="#333333"/>
  <path class="cls-3" d="m40.7,89.54q0.86,0.52 1.74,1l0,-19.17l-1.74,-0.67l0,18.84z" id="svg_7" fill="#1f1f1f"/>
  <path class="cls-3" d="m39.7,83.24a4,4 0 0 0 -3.84,2.94a45,45 0 0 0 6.3,4.2a4,4 0 0 0 -2.46,-7.14z" id="svg_8" fill="#1f1f1f"/>
  <path class="cls-5" d="m36.7,96l0,-26.53a2,2 0 0 1 1.11,-1.79l25.3,-12.68a2,2 0 0 1 1.79,3.58l-24.2,12.12l0,25.3a2,2 0 0 1 -4,0z" id="svg_9" fill="#f83606"/>
  <path class="cls-6" d="m63.11,55l-25.31,12.68a2,2 0 0 0 -1.11,1.79l0,26.53l0.72,-26.57a1.15,1.15 0 0 1 0.61,-1l25.09,-13.43z" id="svg_10" fill="#ffce47"/>
  <path class="cls-7" d="m65.06,55.12a2,2 0 0 1 -0.73,2.94l-23.87,12a1,1 0 0 0 -0.56,0.91l0.23,24.48a2,2 0 0 1 -3.06,1.69a2,2 0 0 0 3.63,-1.26l0,-25.18l24.09,-12a2,2 0 0 0 0.27,-3.58z" id="svg_11" fill="#f47c27"/>
  <path class="cls-7" d="m36.7,89.69a3.92,3.92 0 0 0 4,0.64l0,-7.42a3.92,3.92 0 0 0 -4,0.64l0,6.14z" id="svg_12" fill="#f47c27"/>
  <circle class="cls-6" cx="38.7" cy="86.24" r="4" id="svg_13" fill="#ffce47"/>
  <path class="cls-8" d="m41.4,83.31c3.46,3.74 -1.91,9.08 -5.64,5.64a4,4 0 1 0 5.64,-5.64z" id="svg_14" fill="#f69652"/>
  <path class="cls-9" d="m41.62,83.53a4,4 0 1 0 -5.62,5.63c-3.49,-3.73 1.88,-9.16 5.62,-5.63z" id="svg_15" fill="#ffda75"/>
  <polygon class="cls-1" points="64.89 58.6 42.43 71.37 40.7 70.7 64.89 58.6" id="svg_16" fill="#333333"/>
  <text stroke-width="2" font-style="normal" font-weight="normal" xml:space="preserve" text-anchor="start" font-family="'Montserrat SemiBold'" font-size="40" id="svg_17" y="77.60312" x="129.96094" stroke="#fe3606" fill="#fe3606">DigiEdu</text>
 </g>
</svg>