<svg width="32" height="32" xmlns="http://www.w3.org/2000/svg">
 <title>Comments</title>

 <g>
  <title>Layer 1</title>
  <path fill="#fe361b" stroke="null" id="svg_1" d="m24.60652,14.74654q0,1.70187 -1.15266,3.14455t-3.13139,2.27895t-4.32247,0.83627q-0.67238,0 -1.3928,-0.07825q-1.90189,1.71166 -4.41853,2.36697q-0.47067,0.13693 -1.09503,0.21518q-0.16329,0.01956 -0.29297,-0.08803t-0.1681,-0.28365l0,-0.00978q-0.02882,-0.03912 -0.0048,-0.11737t0.01921,-0.09781t0.04322,-0.09292l0.05763,-0.08803l0.06724,-0.08314l0.07684,-0.08803q0.06724,-0.07825 0.29777,-0.33744t0.33139,-0.37167t0.29777,-0.38634t0.31218,-0.49883t0.25935,-0.57707t0.24974,-0.74335q-1.50806,-0.8705 -2.37736,-2.15179t-0.8693,-2.74843q0,-1.27152 0.68199,-2.43055t1.83465,-2.00019t2.74717,-1.33509t3.34271,-0.49393q2.34374,0 4.32247,0.83627t3.13139,2.27895t1.15266,3.14455z"/>
 </g>
</svg>