<svg width="32" height="32" xmlns="http://www.w3.org/2000/svg">
 <g>
  <title>background</title>
  <rect x="-1" y="-1" width="34" height="34" id="canvas_background" fill="none"/>
 </g>

 <g>
  <title>Layer 1</title>
  <g stroke="null" id="svg_1">
   <polygon stroke="null" fill="#f83606" points="11.807291507720947,5.558999061584473 11.208333015441895,5.558999061584473 10.549479007720947,5.558999061584473 9.770833492279053,5.558999061584473 8.333333253860474,5.558999061584473 8.333333253860474,8.96969223022461 22.369083404541016,8.96969223022461 23.66666603088379,8.96969223022461 24.625,8.96969223022461 24.625,23.67688751220703 27.5,23.67688751220703 27.5,21.412151336669922 27.5,21.164165496826172 27.5,5.558999061584473 " id="svg_2"/>
   <path stroke="null" d="m4.5,26.441l18.72727,0l0,-15.85315l-18.72727,0l0,15.85315zm1.91667,-11.88987l14.85417,0l0,2.26474l-14.85417,0l0,-2.26474zm0,4.52947l14.85417,0l0,2.26474l-14.85417,0l0,-2.26474z" fill="#f83606" id="svg_3"/>
  </g>
 </g>
</svg>