<svg width="32" height="32" xmlns="http://www.w3.org/2000/svg" version="1.1">
 <title>Date</title>
 <desc/>

 <g>
  <title>Layer 1</title>
  <g id="Page-1" fill-rule="evenodd" fill="none">
   <g id="Core" fill="#000000">
    <g id="today">
     <path fill="#fe361b" id="Shape" d="m23,8l-1,0l0,-2l-2,0l0,2l-8,0l0,-2l-2,0l0,2l-1,0c-1.1,0 -2,0.9 -2,2l0,14c0,1.1 0.9,2 2,2l14,0c1.1,0 2,-0.9 2,-2l0,-14c0,-1.1 -0.9,-2 -2,-2l0,0zm0,16l-14,0l0,-11l14,0l0,11l0,0z"/>
     <rect fill="#fe361b" y="15" x="11" width="5" id="Rectangle-path" height="5"/>
    </g>
   </g>
  </g>
 </g>
</svg>