<svg width="60" height="60" xmlns="http://www.w3.org/2000/svg" xml:space="preserve" version="1.1">

 <g>
  <title>Layer 1</title>
  <path fill="#ffffff" stroke="null" id="svg_1" d="m47.57024,41.13415c0.01919,-0.05975 0.03226,-0.12279 0.03226,-0.18913l0,-21.89086c0,-0.06675 -0.01307,-0.13021 -0.03267,-0.19037c-0.00286,-0.00824 -0.00449,-0.01648 -0.00776,-0.02472c-0.02614,-0.07046 -0.06453,-0.13392 -0.11271,-0.18954c-0.00327,-0.00371 -0.00368,-0.00824 -0.00694,-0.01195c-0.00204,-0.00206 -0.00449,-0.00288 -0.00653,-0.00494c-0.05146,-0.05521 -0.11231,-0.09972 -0.18051,-0.13309c-0.00531,-0.00247 -0.00939,-0.00577 -0.0147,-0.00824c-0.06453,-0.02926 -0.13477,-0.04574 -0.20869,-0.05068c-0.00735,-0.00041 -0.01429,-0.00206 -0.02164,-0.00206c-0.00694,-0.00041 -0.01307,-0.00206 -0.02001,-0.00206l-33.97984,0c-0.00694,0 -0.01348,0.00165 -0.02042,0.00206c-0.00653,0.00041 -0.01307,0.00165 -0.0196,0.00206c-0.07473,0.00494 -0.1462,0.02184 -0.21154,0.05151c-0.00408,0.00165 -0.00735,0.00453 -0.01143,0.00618c-0.06943,0.03338 -0.13109,0.0787 -0.18296,0.13474c-0.00204,0.00206 -0.00449,0.00247 -0.00653,0.00453c-0.00327,0.0033 -0.00368,0.00783 -0.00694,0.01154c-0.04819,0.05563 -0.08699,0.11949 -0.11312,0.18995c-0.00327,0.00824 -0.0049,0.01648 -0.00776,0.02513c-0.0196,0.06016 -0.03267,0.12361 -0.03267,0.19037l0,21.89127c0,0.06758 0.01348,0.13186 0.03349,0.19284c0.00286,0.00824 0.00449,0.01607 0.00735,0.02431c0.02655,0.07087 0.06575,0.13474 0.11435,0.19037c0.00286,0.0033 0.00368,0.00742 0.00653,0.01071c0.00245,0.00288 0.00572,0.00453 0.00858,0.00742c0.02001,0.02101 0.04206,0.03956 0.06493,0.05769c0.01021,0.00783 0.01919,0.01731 0.02981,0.02472c0.02695,0.01895 0.05595,0.0342 0.08576,0.04821c0.00735,0.0033 0.01389,0.00865 0.02124,0.01154c0.07392,0.03173 0.15519,0.04986 0.24054,0.04986l33.97943,0c0.08535,0 0.16662,-0.01772 0.24054,-0.04986c0.01143,-0.00494 0.02205,-0.01236 0.03308,-0.01813c0.02532,-0.01277 0.05064,-0.02596 0.07392,-0.04203c0.01225,-0.00865 0.02328,-0.01978 0.03512,-0.02926c0.02083,-0.01689 0.04125,-0.03379 0.05922,-0.05315c0.00327,-0.0033 0.00694,-0.00577 0.01021,-0.00907c0.00327,-0.00371 0.00408,-0.00865 0.00735,-0.01236c0.04778,-0.05521 0.08617,-0.11867 0.11231,-0.18872c0.00408,-0.00907 0.00613,-0.01772 0.00898,-0.02678zm-33.94717,-20.6782l10.31055,9.50223l-10.31055,9.57805l0,-19.08028zm21.13239,9.03662c-0.04247,0.02802 -0.08739,0.05151 -0.12292,0.09106c-0.01348,0.01483 -0.01797,0.0342 -0.02981,0.04986l-4.60252,4.24162l-15.41089,-14.20287l30.82178,0l-10.65563,9.82033zm-9.91359,1.30248l4.74505,4.37306c0.11721,0.10796 0.26504,0.16193 0.41329,0.16193s0.29608,-0.05398 0.41288,-0.16193l4.68624,-4.31867l10.30891,9.47792l-30.82791,0l10.26154,-9.53231zm11.16612,-0.78289l10.36935,-9.55621l0,19.09017l-10.36935,-9.53396z"/>
 </g>
</svg>