<svg width="30" height="30" xmlns="http://www.w3.org/2000/svg">

 <g>
  <title>Layer 1</title>
  <path fill="#ff4500" d="m15.373,19.22929c0,1.466 -1.391,1.969 -2.639,1.969c-1.34,0 -3.15,-0.62 -3.15,-2.228c0,-1.743 2.044,-2.178 3.418,-2.178a3.472,3.472 0 0 1 0.419,0.017c0.855,0.594 1.952,1.247 1.952,2.42zm-1.005,-7.221c0,1.022 -0.394,1.851 -1.541,1.851c-1.491,0 -2.329,-1.994 -2.329,-3.267a1.747,1.747 0 0 1 1.634,-1.96c1.549,0 2.236,2.103 2.236,3.376zm-1.1,-3.979a7.525,7.525 0 0 0 -1.567,0.168a3.471,3.471 0 0 0 -2.756,3.284a2.932,2.932 0 0 0 3.033,2.882a4.739,4.739 0 0 0 0.586,-0.042a2.176,2.176 0 0 0 -0.184,0.72a2.128,2.128 0 0 0 0.536,1.248c-1.5,0.042 -3.828,0.427 -4.574,1.935a2.571,2.571 0 0 0 -0.31,1.131c0,1.944 2.262,2.614 3.828,2.614a5.345,5.345 0 0 0 3.518,-1.1a3.082,3.082 0 0 0 1.173,-2.362c0,-2.346 -2.513,-2.773 -2.513,-3.854c0,-1.106 1.876,-1.273 1.876,-3.493a2.924,2.924 0 0 0 -1.248,-2.471l1.133,0l1.131,-0.662l-3.662,0.002zm8.7,2.145l-2.145,0l0,-2.15l-1.072,0l0,2.15l-2.145,0l0,1.072l2.145,0l0,2.145l1.072,0l0,-2.145l2.145,0l0,-1.072z" id="google"/>
 </g>
</svg>