<svg width="60" height="60" xmlns="http://www.w3.org/2000/svg" xml:space="preserve" version="1.1" enable-background="new 0 0 24 24">

 <g>
  <title>Layer 1</title>
  <path fill="#ffffff" stroke="#fe361c" stroke-width="0" id="svg_1" d="m30.00082,30.52618c-3.48884,0 -6.32012,-2.4489 -6.32012,-5.47002c0,-3.02396 2.83128,-5.47145 6.32012,-5.47145s6.32013,2.44891 6.32013,5.47145c0,3.0197 -2.83128,5.47002 -6.32013,5.47002m0,-17.53468c-7.72587,0 -13.98832,5.42046 -13.98832,12.10856c0,6.31702 6.33496,14.46541 10.5654,18.43267c1.58045,1.4801 3.42128,3.47577 3.42128,3.47577s1.97761,-2.007 3.67341,-3.53101c4.22716,-3.80154 10.31491,-11.43437 10.31491,-18.37743c0,-6.6881 -6.26244,-12.10856 -13.98668,-12.10856"/>
 </g>
</svg>