<svg width="30" height="30" xmlns="http://www.w3.org/2000/svg">
 <g>
  <title>Layer 1</title>
  <path stroke="null" id="instagram" d="m20.10746,19.55555a0.52116,0.52116 0 0 1 -0.52424,0.52424l-9.18699,0a0.52116,0.52116 0 0 1 -0.52424,-0.52424l0,-5.56863l1.2116,0a3.75687,3.75687 0 0 0 -0.17235,1.1285a4.10363,4.10363 0 0 0 8.20725,0a3.76302,3.76302 0 0 0 -0.17235,-1.1285l1.1603,0l0.00102,5.56863l0.00001,0zm-2.44268,-4.58068a2.653,2.653 0 1 1 -2.65607,-2.56477a2.61299,2.61299 0 0 1 2.65607,2.56477zm2.44064,-3.09413a0.594,0.594 0 0 1 -0.59297,0.59297l-1.49577,0a0.594,0.594 0 0 1 -0.59297,-0.59297l0,-1.4178a0.594,0.594 0 0 1 0.59297,-0.59297l1.49475,0a0.594,0.594 0 0 1 0.59297,0.59297l0.00102,1.4178zm1.49475,-1.78816a1.70197,1.70197 0 0 0 -1.69275,-1.69275l-9.81484,0a1.70197,1.70197 0 0 0 -1.69275,1.69275l0,9.81484a1.70197,1.70197 0 0 0 1.69275,1.69275l9.81484,0a1.70197,1.70197 0 0 0 1.69275,-1.69275l0,-9.81484z" fill="#ff4500"/>
 </g>

</svg>