<svg width="32" height="32" xmlns="http://www.w3.org/2000/svg" xml:space="preserve" version="1.1" enable-background="new 0 0 512 512">
 <title>Location</title>

 <g>
  <title>Layer 1</title>
  <g stroke="null" id="svg_3">
   <path fill="#fe361b" stroke="null" id="svg_1" d="m15.99997,5.87248c-4.50086,0 -8.16247,3.41454 -8.16247,7.61157c0,6.74901 7.34472,12.06062 7.65743,12.28354l0.5051,0.35993l0.50477,-0.35993c0.3127,-0.22297 7.6577,-5.53453 7.6577,-12.28354c-0.00005,-4.19708 -3.66162,-7.61157 -8.16253,-7.61157zm-0.00059,18.27291c-1.60871,-1.29092 -6.49879,-5.6303 -6.49879,-10.66134c0,-3.34198 2.9152,-6.06073 6.49938,-6.06073c3.58353,0 6.49938,2.7188 6.49938,6.06073c0.00005,5.02027 -4.89196,9.36841 -6.49998,10.66134z"/>
   <path fill="#fe361b" stroke="null" id="svg_2" d="m15.87389,10.30834c-1.74824,0 -3.16618,1.32163 -3.16618,2.95249c0,1.63025 1.41794,2.95219 3.16618,2.95219c1.74857,0 3.16613,-1.32194 3.16613,-2.95219c0,-1.63086 -1.41756,-2.95249 -3.16613,-2.95249z"/>
  </g>
 </g>
</svg>