<svg width="60" height="60" xmlns="http://www.w3.org/2000/svg">

 <g>
  <title>Layer 1</title>
  <path fill="#ffffff" stroke="null" id="svg_1" d="m44.16678,37.72732q0,0.51137 -0.20123,1.33524t-0.42259,1.29736q-0.42259,0.94698 -2.45504,2.00759q-1.89159,0.96592 -3.74293,0.96592q-0.54333,0 -1.05647,-0.06629t-1.15709,-0.23674t-0.95586,-0.27462t-1.11684,-0.38826t-0.98604,-0.34091q-1.97208,-0.66288 -3.52157,-1.57198q-2.57578,-1.49622 -5.3226,-4.08147t-4.33656,-5.0095q-0.96592,-1.45834 -1.67023,-3.31442q-0.06037,-0.17046 -0.36222,-0.92804t-0.41253,-1.05114t-0.29179,-0.89963t-0.25154,-1.08902t-0.07043,-0.99432q0,-1.74244 1.02629,-3.52275q1.1269,-1.91289 2.13307,-2.31062q0.50308,-0.20833 1.37844,-0.39773t1.41869,-0.1894q0.28173,0 0.42259,0.05682q0.36222,0.11364 1.06653,1.4394q0.22136,0.35985 0.6037,1.02273t0.70431,1.20266t0.62382,1.01326q0.06037,0.07576 0.35216,0.47349t0.43265,0.67235t0.14086,0.53978q0,0.37879 -0.57351,0.94698t-1.24764,1.04167t-1.24764,1.00379t-0.57351,0.87122q0,0.17046 0.10062,0.42614t0.17105,0.38826t0.28173,0.45455t0.23142,0.35985q1.52937,2.59471 3.50145,4.45079t4.72897,3.29548q0.04025,0.01894 0.38234,0.2178t0.48296,0.26515t0.41253,0.16099t0.45277,0.0947q0.36222,0 0.92567,-0.53978t1.06653,-1.17425t1.10678,-1.17425t1.00616,-0.53978q0.28173,0 0.57351,0.13258t0.71438,0.4072t0.50308,0.33144q0.50308,0.28409 1.07659,0.58713t1.27783,0.66288t1.08666,0.56819q1.40863,0.66288 1.52937,1.00379q0.06037,0.13258 0.06037,0.39773z"/>
 </g>
</svg>