<svg width="30" height="30" xmlns="http://www.w3.org/2000/svg">
 <g>
  <title>Layer 1</title>
  <path fill="#ff4500" d="m21.6005,10.91296a5.431,5.431 0 0 1 -1.558,0.419a2.7,2.7 0 0 0 1.189,-1.491a5.327,5.327 0 0 1 -1.717,0.653a2.708,2.708 0 0 0 -4.683,1.851a3.052,3.052 0 0 0 0.067,0.62a7.69,7.69 0 0 1 -5.579,-2.832a2.71,2.71 0 0 0 0.838,3.619a2.722,2.722 0 0 1 -1.223,-0.343l0,0.033a2.706,2.706 0 0 0 2.17,2.656a2.862,2.862 0 0 1 -0.712,0.092a3.4,3.4 0 0 1 -0.511,-0.042a2.71,2.71 0 0 0 2.53,1.876a5.419,5.419 0 0 1 -3.359,1.156a5.556,5.556 0 0 1 -0.653,-0.034a7.7,7.7 0 0 0 11.852,-6.484c0,-0.117 0,-0.234 -0.008,-0.352a5.819,5.819 0 0 0 1.357,-1.397z" id="twitter"/>
 </g>

</svg>