<svg width="128" height="128" xmlns="http://www.w3.org/2000/svg">

 <title/>
 <g>
  <title>background</title>
  <rect fill="none" id="canvas_background" height="402" width="582" y="-1" x="-1"/>
 </g>
 <g>
  <title>Layer 1</title>
  <path fill="#f94807" id="svg_1" d="m98.25,30.45l-9.36,0l0,6l9.36,0a6.32,6.32 0 0 1 6.32,6.32l0,54.81a6.32,6.32 0 0 1 -6.32,6.32l-68.5,0a6.32,6.32 0 0 1 -6.32,-6.32l0,-54.81a6.32,6.32 0 0 1 6.32,-6.32l9.36,0l0,-6l-9.36,0a12.33,12.33 0 0 0 -12.32,12.32l0,54.81a12.33,12.33 0 0 0 12.32,12.32l68.5,0a12.33,12.33 0 0 0 12.32,-12.32l0,-54.81a12.33,12.33 0 0 0 -12.32,-12.32zm-13.9,6l0,-6l-40.7,0l0,6l40.7,0z" class="cls-1"/>
  <path fill="#f49535" id="svg_2" d="m107.57,42.77l0,13l-87.14,0l0,-13a9.32,9.32 0 0 1 9.32,-9.32l9.36,0l0,7.07a0.28,0.28 0 0 0 0.27,0.28l4,0a0.29,0.29 0 0 0 0.28,-0.28l0,-7.07l40.7,0l0,7.07a0.29,0.29 0 0 0 0.28,0.28l4,0a0.28,0.28 0 0 0 0.27,-0.28l0,-7.07l9.36,0a9.32,9.32 0 0 1 9.3,9.32z" class="cls-2"/>
  <path fill="#f94807" id="svg_3" d="m98.25,30.45l-9.36,0l0,6l9.36,0a6.32,6.32 0 0 1 6.32,6.32l0,10l-81.14,0l0,-10a6.32,6.32 0 0 1 6.32,-6.32l9.36,0l0,-6l-9.36,0a12.33,12.33 0 0 0 -12.32,12.32l0,16l93.14,0l0,-16a12.33,12.33 0 0 0 -12.32,-12.32zm-13.9,6l0,-6l-40.7,0l0,6l40.7,0z" class="cls-1"/>
  <path fill="#f94807" id="svg_4" d="m43.65,36.45l0,4.07a0.29,0.29 0 0 1 -0.28,0.28l-4,0a0.28,0.28 0 0 1 -0.27,-0.28l0,-4.07l-6,0l0,4.07a6.28,6.28 0 0 0 6.27,6.28l4,0a6.29,6.29 0 0 0 6.28,-6.28l0,-4.07l-6,0zm-0.28,-16.35l-4,0a6.28,6.28 0 0 0 -6.27,6.28l0,14.14a6.28,6.28 0 0 0 6.27,6.28l4,0a6.29,6.29 0 0 0 6.28,-6.28l0,-14.14a6.29,6.29 0 0 0 -6.28,-6.28zm0.28,20.42a0.29,0.29 0 0 1 -0.28,0.28l-4,0a0.28,0.28 0 0 1 -0.27,-0.28l0,-14.14a0.27,0.27 0 0 1 0.27,-0.28l4,0a0.28,0.28 0 0 1 0.28,0.28l0,14.14z" class="cls-1"/>
  <path fill="#f94807" id="svg_5" d="m88.62,20.1l-4,0a6.29,6.29 0 0 0 -6.28,6.28l0,14.14a6.29,6.29 0 0 0 6.28,6.28l4,0a6.28,6.28 0 0 0 6.27,-6.28l0,-14.14a6.28,6.28 0 0 0 -6.27,-6.28zm0.27,20.42a0.28,0.28 0 0 1 -0.27,0.28l-4,0a0.29,0.29 0 0 1 -0.28,-0.28l0,-14.14a0.28,0.28 0 0 1 0.28,-0.28l4,0a0.27,0.27 0 0 1 0.27,0.28l0,14.14z" class="cls-1"/>
  <rect stroke-width="6px" stroke-miterlimit="10" stroke="#f94807" fill="#f49535" id="svg_6" y="64.64" x="32.22" width="13.13" height="10.65" class="cls-3"/>
  <rect stroke-width="6px" stroke-miterlimit="10" stroke="#f94807" fill="#f49535" id="svg_7" y="64.64" x="57.44" width="13.13" height="10.65" class="cls-3"/>
  <rect stroke-width="6px" stroke-miterlimit="10" stroke="#f94807" fill="#f49535" id="svg_8" y="64.64" x="82.66" width="13.13" height="10.65" class="cls-3"/>
  <rect stroke-width="6px" stroke-miterlimit="10" stroke="#f94807" fill="#f49535" id="svg_9" y="86.5" x="32.22" width="13.13" height="10.65" class="cls-3"/>
  <rect stroke-width="6px" stroke-miterlimit="10" stroke="#f94807" fill="#f49535" id="svg_10" y="86.5" x="57.44" width="13.13" height="10.65" class="cls-3"/>
  <rect stroke-width="6px" stroke-miterlimit="10" stroke="#f94807" fill="#f49535" id="svg_11" y="86.5" x="82.66" width="13.13" height="10.65" class="cls-3"/>
 </g>
</svg>